<?xml version="1.0" encoding="utf-8"?>
<!-- Generator: Adobe Illustrator 28.1.0, SVG Export Plug-In . SVG Version: 6.00 Build 0)  -->
<svg version="1.1" id="layer_1" xmlns="http://www.w3.org/2000/svg" xmlns:xlink="http://www.w3.org/1999/xlink" x="0px" y="0px"
	 viewBox="0 0 128 128" style="enable-background:new 0 0 128 128;" xml:space="preserve">
<style type="text/css">
	.st0{fill:none;stroke:#C80000;stroke-width:16;stroke-miterlimit:10;}
</style>
<line class="st0" x1="16" y1="112" x2="112" y2="16"/>
<g>
	<path d="M52.7,65.2c-2,7.4-7.8,14.3-21.1,14.3c-15.1,0-22.4-10.4-22.4-22c0-11.5,8-22.1,22.9-22.1c12.9,0,19.4,7.2,20.6,14.3H42.4
		c-0.9-2.4-3.2-6.3-10.4-6.3c-7.9,0-12,6-12,13.7c0,7.8,3.8,14.5,12.1,14.5c6,0,8.7-2.3,10.3-6.4C42.4,65.2,52.7,65.2,52.7,65.2z"/>
	<path d="M78.3,59.3v8.1h-20v-8.1C58.3,59.3,78.3,59.3,78.3,59.3z"/>
	<path d="M118.7,75.2c0,11.2-4.9,17.4-18,17.4c-13.8,0-16.2-7.6-16.7-11h9.9c0.7,2,2.4,3.8,7.3,3.8c6.4,0,7.8-4.1,7.8-9.4v-1.3
		c-1.8,2.5-4.3,4.4-10.3,4.4c-9,0-15-7.1-15-15.5c0-9.6,6.9-16.7,15.8-16.7c6.5,0,8.8,2.6,9.5,4.3c0.1-1.1,0.1-2.8,0.2-3.5h9.6
		c-0.1,3-0.1,6.1-0.1,9.1C118.7,56.8,118.7,75.2,118.7,75.2z M93.7,63.2c0,4.5,2.6,8.3,7.7,8.3c5,0,7.8-3,7.8-8.6
		c0-5.1-2.6-8.5-7.5-8.5C96.5,54.4,93.7,58.2,93.7,63.2z"/>
</g>
</svg>
